<mxfile host="app.diagrams.net" agent="Mozilla/5.0 (Windows NT 10.0; Win64; x64) AppleWebKit/537.36 (KHTML, like Gecko) Chrome/126.0.0.0 Safari/537.36" version="24.7.4">
  <diagram name="第 1 页" id="5Z_olRkmGDi8k6_0ZwjT">
    <mxGraphModel dx="775" dy="408" grid="1" gridSize="10" guides="1" tooltips="1" connect="1" arrows="1" fold="1" page="1" pageScale="1" pageWidth="827" pageHeight="1169" math="0" shadow="0">
      <root>
        <mxCell id="0" />
        <mxCell id="1" parent="0" />
        <mxCell id="xy_b2I1KZK5jlnmHf5yU-2" value="" style="endArrow=none;html=1;rounded=0;" edge="1" parent="1">
          <mxGeometry width="50" height="50" relative="1" as="geometry">
            <mxPoint x="80" y="380" as="sourcePoint" />
            <mxPoint x="120" y="380" as="targetPoint" />
          </mxGeometry>
        </mxCell>
        <mxCell id="xy_b2I1KZK5jlnmHf5yU-3" value="" style="endArrow=none;html=1;rounded=0;" edge="1" parent="1">
          <mxGeometry width="50" height="50" relative="1" as="geometry">
            <mxPoint x="120" y="400" as="sourcePoint" />
            <mxPoint x="160" y="400" as="targetPoint" />
          </mxGeometry>
        </mxCell>
        <mxCell id="xy_b2I1KZK5jlnmHf5yU-4" value="" style="endArrow=none;html=1;rounded=0;" edge="1" parent="1">
          <mxGeometry width="50" height="50" relative="1" as="geometry">
            <mxPoint x="80" y="380" as="sourcePoint" />
            <mxPoint x="80" y="400" as="targetPoint" />
          </mxGeometry>
        </mxCell>
        <mxCell id="xy_b2I1KZK5jlnmHf5yU-5" value="" style="endArrow=none;html=1;rounded=0;" edge="1" parent="1">
          <mxGeometry width="50" height="50" relative="1" as="geometry">
            <mxPoint x="120" y="380" as="sourcePoint" />
            <mxPoint x="120" y="400" as="targetPoint" />
          </mxGeometry>
        </mxCell>
        <mxCell id="xy_b2I1KZK5jlnmHf5yU-6" value="" style="endArrow=none;html=1;rounded=0;" edge="1" parent="1">
          <mxGeometry width="50" height="50" relative="1" as="geometry">
            <mxPoint x="160" y="380" as="sourcePoint" />
            <mxPoint x="160" y="400" as="targetPoint" />
          </mxGeometry>
        </mxCell>
        <mxCell id="xy_b2I1KZK5jlnmHf5yU-7" value="" style="endArrow=none;html=1;rounded=0;" edge="1" parent="1">
          <mxGeometry width="50" height="50" relative="1" as="geometry">
            <mxPoint x="160" y="380" as="sourcePoint" />
            <mxPoint x="200" y="380" as="targetPoint" />
          </mxGeometry>
        </mxCell>
        <mxCell id="xy_b2I1KZK5jlnmHf5yU-8" value="" style="endArrow=none;html=1;rounded=0;" edge="1" parent="1">
          <mxGeometry width="50" height="50" relative="1" as="geometry">
            <mxPoint x="200" y="380" as="sourcePoint" />
            <mxPoint x="200" y="400" as="targetPoint" />
          </mxGeometry>
        </mxCell>
        <mxCell id="xy_b2I1KZK5jlnmHf5yU-9" value="" style="endArrow=none;html=1;rounded=0;" edge="1" parent="1">
          <mxGeometry width="50" height="50" relative="1" as="geometry">
            <mxPoint x="200" y="400" as="sourcePoint" />
            <mxPoint x="240" y="400" as="targetPoint" />
          </mxGeometry>
        </mxCell>
        <mxCell id="xy_b2I1KZK5jlnmHf5yU-12" value="" style="endArrow=none;html=1;rounded=0;" edge="1" parent="1">
          <mxGeometry width="50" height="50" relative="1" as="geometry">
            <mxPoint x="240" y="380" as="sourcePoint" />
            <mxPoint x="240" y="400" as="targetPoint" />
          </mxGeometry>
        </mxCell>
        <mxCell id="xy_b2I1KZK5jlnmHf5yU-25" value="" style="endArrow=none;html=1;rounded=0;" edge="1" parent="1">
          <mxGeometry width="50" height="50" relative="1" as="geometry">
            <mxPoint x="240" y="380" as="sourcePoint" />
            <mxPoint x="280" y="380" as="targetPoint" />
          </mxGeometry>
        </mxCell>
        <mxCell id="xy_b2I1KZK5jlnmHf5yU-26" value="" style="endArrow=none;html=1;rounded=0;" edge="1" parent="1">
          <mxGeometry width="50" height="50" relative="1" as="geometry">
            <mxPoint x="280" y="380" as="sourcePoint" />
            <mxPoint x="280" y="400" as="targetPoint" />
          </mxGeometry>
        </mxCell>
        <mxCell id="xy_b2I1KZK5jlnmHf5yU-27" value="" style="endArrow=none;html=1;rounded=0;" edge="1" parent="1">
          <mxGeometry width="50" height="50" relative="1" as="geometry">
            <mxPoint x="280" y="400" as="sourcePoint" />
            <mxPoint x="320" y="400" as="targetPoint" />
          </mxGeometry>
        </mxCell>
        <mxCell id="xy_b2I1KZK5jlnmHf5yU-28" value="" style="endArrow=none;html=1;rounded=0;" edge="1" parent="1">
          <mxGeometry width="50" height="50" relative="1" as="geometry">
            <mxPoint x="320" y="380" as="sourcePoint" />
            <mxPoint x="360" y="380" as="targetPoint" />
          </mxGeometry>
        </mxCell>
        <mxCell id="xy_b2I1KZK5jlnmHf5yU-29" value="" style="endArrow=none;html=1;rounded=0;" edge="1" parent="1">
          <mxGeometry width="50" height="50" relative="1" as="geometry">
            <mxPoint x="360" y="400" as="sourcePoint" />
            <mxPoint x="400" y="400" as="targetPoint" />
          </mxGeometry>
        </mxCell>
        <mxCell id="xy_b2I1KZK5jlnmHf5yU-30" value="" style="endArrow=none;html=1;rounded=0;" edge="1" parent="1">
          <mxGeometry width="50" height="50" relative="1" as="geometry">
            <mxPoint x="320" y="380" as="sourcePoint" />
            <mxPoint x="320" y="400" as="targetPoint" />
          </mxGeometry>
        </mxCell>
        <mxCell id="xy_b2I1KZK5jlnmHf5yU-31" value="" style="endArrow=none;html=1;rounded=0;" edge="1" parent="1">
          <mxGeometry width="50" height="50" relative="1" as="geometry">
            <mxPoint x="360" y="380" as="sourcePoint" />
            <mxPoint x="360" y="400" as="targetPoint" />
          </mxGeometry>
        </mxCell>
        <mxCell id="xy_b2I1KZK5jlnmHf5yU-32" value="" style="endArrow=none;html=1;rounded=0;" edge="1" parent="1">
          <mxGeometry width="50" height="50" relative="1" as="geometry">
            <mxPoint x="400" y="380" as="sourcePoint" />
            <mxPoint x="400" y="400" as="targetPoint" />
          </mxGeometry>
        </mxCell>
        <mxCell id="xy_b2I1KZK5jlnmHf5yU-33" value="" style="endArrow=none;html=1;rounded=0;" edge="1" parent="1">
          <mxGeometry width="50" height="50" relative="1" as="geometry">
            <mxPoint x="400" y="380" as="sourcePoint" />
            <mxPoint x="440" y="380" as="targetPoint" />
          </mxGeometry>
        </mxCell>
        <mxCell id="xy_b2I1KZK5jlnmHf5yU-34" value="" style="endArrow=none;html=1;rounded=0;" edge="1" parent="1">
          <mxGeometry width="50" height="50" relative="1" as="geometry">
            <mxPoint x="440" y="380" as="sourcePoint" />
            <mxPoint x="440" y="400" as="targetPoint" />
          </mxGeometry>
        </mxCell>
        <mxCell id="xy_b2I1KZK5jlnmHf5yU-35" value="" style="endArrow=none;html=1;rounded=0;" edge="1" parent="1">
          <mxGeometry width="50" height="50" relative="1" as="geometry">
            <mxPoint x="440" y="400" as="sourcePoint" />
            <mxPoint x="480" y="400" as="targetPoint" />
          </mxGeometry>
        </mxCell>
        <mxCell id="xy_b2I1KZK5jlnmHf5yU-36" value="" style="endArrow=none;html=1;rounded=0;" edge="1" parent="1">
          <mxGeometry width="50" height="50" relative="1" as="geometry">
            <mxPoint x="480" y="380" as="sourcePoint" />
            <mxPoint x="480" y="400" as="targetPoint" />
          </mxGeometry>
        </mxCell>
        <mxCell id="xy_b2I1KZK5jlnmHf5yU-37" value="" style="endArrow=none;html=1;rounded=0;" edge="1" parent="1">
          <mxGeometry width="50" height="50" relative="1" as="geometry">
            <mxPoint x="480" y="380" as="sourcePoint" />
            <mxPoint x="520" y="380" as="targetPoint" />
          </mxGeometry>
        </mxCell>
        <mxCell id="xy_b2I1KZK5jlnmHf5yU-38" value="" style="endArrow=none;html=1;rounded=0;" edge="1" parent="1">
          <mxGeometry width="50" height="50" relative="1" as="geometry">
            <mxPoint x="520" y="380" as="sourcePoint" />
            <mxPoint x="520" y="400" as="targetPoint" />
          </mxGeometry>
        </mxCell>
        <mxCell id="xy_b2I1KZK5jlnmHf5yU-39" value="" style="endArrow=none;html=1;rounded=0;" edge="1" parent="1">
          <mxGeometry width="50" height="50" relative="1" as="geometry">
            <mxPoint x="520" y="400" as="sourcePoint" />
            <mxPoint x="560" y="400" as="targetPoint" />
          </mxGeometry>
        </mxCell>
        <mxCell id="xy_b2I1KZK5jlnmHf5yU-51" value="INSN" style="rounded=0;whiteSpace=wrap;html=1;" vertex="1" parent="1">
          <mxGeometry x="160" y="410" width="80" height="20" as="geometry" />
        </mxCell>
        <mxCell id="xy_b2I1KZK5jlnmHf5yU-52" value="PC" style="rounded=0;whiteSpace=wrap;html=1;" vertex="1" parent="1">
          <mxGeometry x="80" y="410" width="80" height="20" as="geometry" />
        </mxCell>
        <mxCell id="xy_b2I1KZK5jlnmHf5yU-53" value="rs1/rs2" style="rounded=0;whiteSpace=wrap;html=1;" vertex="1" parent="1">
          <mxGeometry x="160" y="450" width="80" height="15" as="geometry" />
        </mxCell>
        <mxCell id="xy_b2I1KZK5jlnmHf5yU-54" value="RAT" style="ellipse;shape=cloud;whiteSpace=wrap;html=1;" vertex="1" parent="1">
          <mxGeometry x="158.75" y="470" width="42.5" height="25" as="geometry" />
        </mxCell>
        <mxCell id="xy_b2I1KZK5jlnmHf5yU-55" value="" style="endArrow=openThin;html=1;rounded=0;endFill=0;" edge="1" parent="1">
          <mxGeometry width="50" height="50" relative="1" as="geometry">
            <mxPoint x="197.95999999999998" y="465" as="sourcePoint" />
            <mxPoint x="198" y="475" as="targetPoint" />
          </mxGeometry>
        </mxCell>
        <mxCell id="xy_b2I1KZK5jlnmHf5yU-56" value="Prs1&amp;nbsp; Prs2" style="rounded=0;whiteSpace=wrap;html=1;" vertex="1" parent="1">
          <mxGeometry x="160" y="505" width="40" height="30" as="geometry" />
        </mxCell>
        <mxCell id="xy_b2I1KZK5jlnmHf5yU-60" value="GPR" style="ellipse;shape=cloud;whiteSpace=wrap;html=1;" vertex="1" parent="1">
          <mxGeometry x="196.56" y="470" width="42.5" height="25" as="geometry" />
        </mxCell>
        <mxCell id="xy_b2I1KZK5jlnmHf5yU-61" value="Drs1&amp;nbsp; Drs2" style="rounded=0;whiteSpace=wrap;html=1;" vertex="1" parent="1">
          <mxGeometry x="200" y="505" width="40" height="30" as="geometry" />
        </mxCell>
        <mxCell id="xy_b2I1KZK5jlnmHf5yU-69" value="" style="endArrow=openThin;html=1;rounded=0;endFill=0;" edge="1" parent="1">
          <mxGeometry width="50" height="50" relative="1" as="geometry">
            <mxPoint x="279.9" y="585" as="sourcePoint" />
            <mxPoint x="279.94" y="595" as="targetPoint" />
          </mxGeometry>
        </mxCell>
        <mxCell id="xy_b2I1KZK5jlnmHf5yU-70" value="ROB_Prs1" style="rounded=0;whiteSpace=wrap;html=1;" vertex="1" parent="1">
          <mxGeometry x="239.99999999999994" y="475" width="80" height="15" as="geometry" />
        </mxCell>
        <mxCell id="xy_b2I1KZK5jlnmHf5yU-71" value="ROB_Prs2" style="rounded=0;whiteSpace=wrap;html=1;" vertex="1" parent="1">
          <mxGeometry x="239.99999999999994" y="490" width="80" height="15" as="geometry" />
        </mxCell>
        <mxCell id="xy_b2I1KZK5jlnmHf5yU-72" value="ROB_op" style="rounded=0;whiteSpace=wrap;html=1;" vertex="1" parent="1">
          <mxGeometry x="240" y="430" width="80" height="15" as="geometry" />
        </mxCell>
        <mxCell id="xy_b2I1KZK5jlnmHf5yU-73" value="" style="endArrow=openThin;html=1;rounded=0;endFill=0;" edge="1" parent="1">
          <mxGeometry width="50" height="50" relative="1" as="geometry">
            <mxPoint x="179.9" y="495" as="sourcePoint" />
            <mxPoint x="179.93999999999997" y="505" as="targetPoint" />
          </mxGeometry>
        </mxCell>
        <mxCell id="xy_b2I1KZK5jlnmHf5yU-74" value="" style="endArrow=openThin;html=1;rounded=0;endFill=0;" edge="1" parent="1">
          <mxGeometry width="50" height="50" relative="1" as="geometry">
            <mxPoint x="217.73999999999995" y="495" as="sourcePoint" />
            <mxPoint x="217.78000000000003" y="505" as="targetPoint" />
          </mxGeometry>
        </mxCell>
        <mxCell id="xy_b2I1KZK5jlnmHf5yU-75" value="op" style="rounded=0;whiteSpace=wrap;html=1;" vertex="1" parent="1">
          <mxGeometry x="160" y="430" width="80" height="15" as="geometry" />
        </mxCell>
        <mxCell id="xy_b2I1KZK5jlnmHf5yU-76" value="ROB_Pdst" style="rounded=0;whiteSpace=wrap;html=1;" vertex="1" parent="1">
          <mxGeometry x="240" y="570" width="80" height="15" as="geometry" />
        </mxCell>
        <mxCell id="xy_b2I1KZK5jlnmHf5yU-77" value="ROB_wptr" style="rounded=0;whiteSpace=wrap;html=1;" vertex="1" parent="1">
          <mxGeometry x="160" y="570" width="80" height="15" as="geometry" />
        </mxCell>
        <mxCell id="xy_b2I1KZK5jlnmHf5yU-78" value="RAT_Pdst" style="rounded=0;whiteSpace=wrap;html=1;" vertex="1" parent="1">
          <mxGeometry x="240" y="595" width="80" height="15" as="geometry" />
        </mxCell>
        <mxCell id="xy_b2I1KZK5jlnmHf5yU-79" value="" style="endArrow=none;html=1;rounded=0;" edge="1" parent="1">
          <mxGeometry width="50" height="50" relative="1" as="geometry">
            <mxPoint x="560" y="380" as="sourcePoint" />
            <mxPoint x="600" y="380" as="targetPoint" />
          </mxGeometry>
        </mxCell>
        <mxCell id="xy_b2I1KZK5jlnmHf5yU-80" value="" style="endArrow=none;html=1;rounded=0;" edge="1" parent="1">
          <mxGeometry width="50" height="50" relative="1" as="geometry">
            <mxPoint x="600" y="400" as="sourcePoint" />
            <mxPoint x="640" y="400" as="targetPoint" />
          </mxGeometry>
        </mxCell>
        <mxCell id="xy_b2I1KZK5jlnmHf5yU-81" value="" style="endArrow=none;html=1;rounded=0;" edge="1" parent="1">
          <mxGeometry width="50" height="50" relative="1" as="geometry">
            <mxPoint x="560" y="380" as="sourcePoint" />
            <mxPoint x="560" y="400" as="targetPoint" />
          </mxGeometry>
        </mxCell>
        <mxCell id="xy_b2I1KZK5jlnmHf5yU-82" value="" style="endArrow=none;html=1;rounded=0;" edge="1" parent="1">
          <mxGeometry width="50" height="50" relative="1" as="geometry">
            <mxPoint x="600" y="380" as="sourcePoint" />
            <mxPoint x="600" y="400" as="targetPoint" />
          </mxGeometry>
        </mxCell>
        <mxCell id="xy_b2I1KZK5jlnmHf5yU-83" value="" style="endArrow=none;html=1;rounded=0;" edge="1" parent="1">
          <mxGeometry width="50" height="50" relative="1" as="geometry">
            <mxPoint x="640" y="380" as="sourcePoint" />
            <mxPoint x="640" y="400" as="targetPoint" />
          </mxGeometry>
        </mxCell>
        <mxCell id="xy_b2I1KZK5jlnmHf5yU-103" value="dst" style="rounded=0;whiteSpace=wrap;html=1;" vertex="1" parent="1">
          <mxGeometry x="160" y="595" width="80" height="15" as="geometry" />
        </mxCell>
        <mxCell id="xy_b2I1KZK5jlnmHf5yU-104" value="&lt;font style=&quot;font-size: 11px;&quot;&gt;RAT_Pdst_valid&lt;/font&gt;" style="rounded=0;whiteSpace=wrap;html=1;" vertex="1" parent="1">
          <mxGeometry x="240" y="610" width="80" height="15" as="geometry" />
        </mxCell>
        <mxCell id="xy_b2I1KZK5jlnmHf5yU-105" value="IQ_Prs1" style="rounded=0;whiteSpace=wrap;html=1;" vertex="1" parent="1">
          <mxGeometry x="319.99999999999994" y="475" width="80" height="15" as="geometry" />
        </mxCell>
        <mxCell id="xy_b2I1KZK5jlnmHf5yU-106" value="IQ_Prs2" style="rounded=0;whiteSpace=wrap;html=1;" vertex="1" parent="1">
          <mxGeometry x="319.99999999999994" y="490" width="80" height="15" as="geometry" />
        </mxCell>
        <mxCell id="xy_b2I1KZK5jlnmHf5yU-107" value="IQ_op" style="rounded=0;whiteSpace=wrap;html=1;" vertex="1" parent="1">
          <mxGeometry x="320" y="430" width="80" height="15" as="geometry" />
        </mxCell>
        <mxCell id="xy_b2I1KZK5jlnmHf5yU-108" value="IQ_Pdst" style="rounded=0;whiteSpace=wrap;html=1;" vertex="1" parent="1">
          <mxGeometry x="320" y="570" width="80" height="15" as="geometry" />
        </mxCell>
        <mxCell id="xy_b2I1KZK5jlnmHf5yU-109" value="ROB_Drs1" style="rounded=0;whiteSpace=wrap;html=1;" vertex="1" parent="1">
          <mxGeometry x="239.99999999999994" y="505" width="80" height="15" as="geometry" />
        </mxCell>
        <mxCell id="xy_b2I1KZK5jlnmHf5yU-110" value="ROB_Drs2" style="rounded=0;whiteSpace=wrap;html=1;" vertex="1" parent="1">
          <mxGeometry x="239.99999999999994" y="520" width="80" height="15" as="geometry" />
        </mxCell>
        <mxCell id="xy_b2I1KZK5jlnmHf5yU-111" value="IQ_Drs1" style="rounded=0;whiteSpace=wrap;html=1;" vertex="1" parent="1">
          <mxGeometry x="319.99999999999994" y="505" width="80" height="15" as="geometry" />
        </mxCell>
        <mxCell id="xy_b2I1KZK5jlnmHf5yU-112" value="IQ_Drs2" style="rounded=0;whiteSpace=wrap;html=1;" vertex="1" parent="1">
          <mxGeometry x="319.99999999999994" y="520" width="80" height="15" as="geometry" />
        </mxCell>
        <mxCell id="xy_b2I1KZK5jlnmHf5yU-113" value="FU_op" style="rounded=0;whiteSpace=wrap;html=1;" vertex="1" parent="1">
          <mxGeometry x="400" y="430" width="80" height="15" as="geometry" />
        </mxCell>
        <mxCell id="xy_b2I1KZK5jlnmHf5yU-114" value="FU_Drs1" style="rounded=0;whiteSpace=wrap;html=1;" vertex="1" parent="1">
          <mxGeometry x="399.99999999999994" y="505" width="80" height="15" as="geometry" />
        </mxCell>
        <mxCell id="xy_b2I1KZK5jlnmHf5yU-115" value="FU_Drs2" style="rounded=0;whiteSpace=wrap;html=1;" vertex="1" parent="1">
          <mxGeometry x="399.99999999999994" y="520" width="80" height="15" as="geometry" />
        </mxCell>
        <mxCell id="xy_b2I1KZK5jlnmHf5yU-116" value="FU_Pdst" style="rounded=0;whiteSpace=wrap;html=1;" vertex="1" parent="1">
          <mxGeometry x="400" y="570" width="80" height="15" as="geometry" />
        </mxCell>
        <mxCell id="xy_b2I1KZK5jlnmHf5yU-117" value="ROB_Ddst" style="rounded=0;whiteSpace=wrap;html=1;" vertex="1" parent="1">
          <mxGeometry x="479.99999999999994" y="560" width="80" height="15" as="geometry" />
        </mxCell>
        <mxCell id="xy_b2I1KZK5jlnmHf5yU-119" value="FU" style="ellipse;shape=cloud;whiteSpace=wrap;html=1;" vertex="1" parent="1">
          <mxGeometry x="418.75" y="535" width="42.5" height="15" as="geometry" />
        </mxCell>
        <mxCell id="xy_b2I1KZK5jlnmHf5yU-120" value="Ddst" style="rounded=0;whiteSpace=wrap;html=1;" vertex="1" parent="1">
          <mxGeometry x="400" y="560" width="80" height="10" as="geometry" />
        </mxCell>
        <mxCell id="xy_b2I1KZK5jlnmHf5yU-121" value="" style="endArrow=openThin;html=1;rounded=0;endFill=0;" edge="1" parent="1">
          <mxGeometry width="50" height="50" relative="1" as="geometry">
            <mxPoint x="439.95" y="550" as="sourcePoint" />
            <mxPoint x="439.98999999999995" y="560" as="targetPoint" />
          </mxGeometry>
        </mxCell>
        <mxCell id="xy_b2I1KZK5jlnmHf5yU-123" value="RETIRE_Ddst" style="rounded=0;whiteSpace=wrap;html=1;" vertex="1" parent="1">
          <mxGeometry x="560" y="560" width="80" height="15" as="geometry" />
        </mxCell>
        <mxCell id="xy_b2I1KZK5jlnmHf5yU-125" value="GPR" style="ellipse;shape=cloud;whiteSpace=wrap;html=1;" vertex="1" parent="1">
          <mxGeometry x="578.75" y="585" width="42.5" height="20" as="geometry" />
        </mxCell>
        <mxCell id="xy_b2I1KZK5jlnmHf5yU-126" value="" style="endArrow=openThin;html=1;rounded=0;endFill=0;" edge="1" parent="1">
          <mxGeometry width="50" height="50" relative="1" as="geometry">
            <mxPoint x="599.9200000000001" y="575" as="sourcePoint" />
            <mxPoint x="599.96" y="585" as="targetPoint" />
          </mxGeometry>
        </mxCell>
        <mxCell id="xy_b2I1KZK5jlnmHf5yU-127" value="FETCH" style="rounded=0;whiteSpace=wrap;html=1;" vertex="1" parent="1">
          <mxGeometry x="78.75" y="350" width="80" height="20" as="geometry" />
        </mxCell>
        <mxCell id="xy_b2I1KZK5jlnmHf5yU-128" value="DECODE" style="rounded=0;whiteSpace=wrap;html=1;" vertex="1" parent="1">
          <mxGeometry x="158.75" y="350" width="80" height="20" as="geometry" />
        </mxCell>
        <mxCell id="xy_b2I1KZK5jlnmHf5yU-129" value="RR" style="rounded=0;whiteSpace=wrap;html=1;" vertex="1" parent="1">
          <mxGeometry x="238.75" y="350" width="80" height="20" as="geometry" />
        </mxCell>
        <mxCell id="xy_b2I1KZK5jlnmHf5yU-130" value="ISSUE" style="rounded=0;whiteSpace=wrap;html=1;" vertex="1" parent="1">
          <mxGeometry x="318.75" y="350" width="80" height="20" as="geometry" />
        </mxCell>
        <mxCell id="xy_b2I1KZK5jlnmHf5yU-131" value="EXE" style="rounded=0;whiteSpace=wrap;html=1;" vertex="1" parent="1">
          <mxGeometry x="398.75" y="350" width="80" height="20" as="geometry" />
        </mxCell>
        <mxCell id="xy_b2I1KZK5jlnmHf5yU-132" value="WB" style="rounded=0;whiteSpace=wrap;html=1;" vertex="1" parent="1">
          <mxGeometry x="478.75" y="350" width="80" height="20" as="geometry" />
        </mxCell>
        <mxCell id="xy_b2I1KZK5jlnmHf5yU-133" value="RETIRE" style="rounded=0;whiteSpace=wrap;html=1;" vertex="1" parent="1">
          <mxGeometry x="558.75" y="350" width="80" height="20" as="geometry" />
        </mxCell>
      </root>
    </mxGraphModel>
  </diagram>
</mxfile>
